<?xml version="1.0" standalone="no"?>
<svg version="1.0" xmlns="http://www.w3.org/2000/svg"
 viewBox="240 -50 1240 1240"
 preserveAspectRatio="xMidYMid meet">

<g transform="translate(0.000000,1140.000000) scale(0.100000,-0.100000)"
fill="#5BF0A0" stroke="none">
<path d="M6775 8670 c167 -30 274 -51 310 -61 22 -6 58 -15 80 -21 63 -17 216
-68 260 -88 22 -9 51 -21 65 -25 14 -4 48 -17 75 -30 28 -12 68 -30 90 -40
283 -123 553 -308 804 -551 76 -74 145 -134 153 -134 7 0 52 39 98 86 143 145
305 277 478 392 35 23 65 42 67 42 1 0 33 18 70 40 68 42 273 144 335 168 19
8 64 25 100 39 178 69 312 110 455 137 157 31 181 35 260 48 107 17 675 17
763 0 34 -6 90 -17 125 -23 219 -37 443 -105 683 -207 361 -154 636 -341 919
-626 292 -293 478 -568 637 -941 88 -206 149 -404 192 -625 14 -73 22 -127 48
-320 10 -72 13 -338 13 -1119 l0 -1023 -55 -51 c-93 -86 -253 -217 -264 -217
-9 0 -156 126 -288 247 l-38 34 0 952 c0 963 -3 1058 -39 1312 -21 146 -76
336 -151 525 -176 442 -495 831 -889 1084 -92 59 -259 148 -331 176 -30 12
-68 28 -85 35 -31 15 -202 69 -267 86 -21 5 -55 14 -75 19 -200 54 -645 70
-888 31 -172 -27 -414 -92 -513 -137 -29 -13 -56 -24 -61 -24 -9 0 -213 -104
-276 -140 -22 -13 -56 -32 -76 -43 -90 -48 -323 -241 -431 -356 -99 -106 -278
-335 -278 -356 0 -2 -23 -44 -52 -92 -44 -75 -99 -185 -162 -326 -10 -21 -22
-37 -27 -35 -5 2 -32 54 -58 116 -243 557 -679 995 -1216 1219 -33 14 -73 31
-90 38 -57 25 -208 75 -226 75 -11 0 -27 4 -37 9 -20 11 -148 38 -272 57 -105
16 -514 18 -625 3 -368 -49 -664 -153 -970 -341 -133 -83 -325 -237 -426 -344
-161 -172 -324 -402 -409 -579 -18 -38 -38 -79 -43 -89 -24 -49 -81 -198 -103
-271 -49 -160 -66 -233 -84 -360 -7 -44 -17 -111 -22 -150 -7 -44 -13 -648
-17 -1650 l-6 -1580 -300 -3 c-165 -1 -310 0 -323 3 l-23 6 4 1602 c3 1399 6
1617 20 1719 26 189 38 256 77 423 15 60 105 338 125 380 7 17 27 65 44 108
120 302 347 635 620 907 194 194 409 363 594 466 303 170 641 300 922 354 33
6 78 16 100 20 46 10 205 29 285 34 107 7 566 -4 625 -14z m-138 -940 c208
-27 338 -59 492 -120 421 -166 722 -405 955 -759 106 -160 227 -409 267 -546
25 -89 52 -203 72 -310 l22 -120 0 -1605 0 -1605 -298 -3 c-194 -1 -305 1
-317 8 -20 11 -20 31 -20 1549 0 1025 -3 1557 -10 1597 -47 264 -67 329 -151
499 -68 138 -182 298 -287 401 -156 154 -452 315 -652 353 -30 6 -79 15 -108
21 -79 15 -373 12 -467 -5 -105 -19 -187 -40 -255 -67 -78 -30 -234 -112 -278
-146 -20 -16 -63 -48 -95 -72 -79 -59 -226 -216 -282 -301 -53 -81 -137 -245
-171 -335 -21 -58 -45 -145 -75 -284 -9 -41 -13 -445 -16 -1631 l-4 -1576
-181 -6 c-283 -11 -442 -9 -456 5 -16 16 -17 2855 -2 3041 26 311 85 572 181
797 168 393 437 714 769 921 77 47 255 140 305 159 11 4 31 12 45 18 43 19
183 63 230 73 25 5 70 14 100 20 179 36 520 51 687 29z m4467 -1 c318 -37 630
-150 886 -323 58 -39 107 -73 110 -76 3 -3 28 -23 55 -44 171 -135 362 -375
484 -610 157 -300 223 -541 261 -941 12 -131 14 -765 2 -765 -5 0 -35 24 -68
53 -155 139 -229 197 -248 197 -12 -1 -35 -13 -52 -28 -175 -153 -256 -222
-264 -222 -4 0 -10 192 -13 428 -4 324 -9 444 -20 497 -8 39 -20 94 -26 122
-18 90 -60 201 -117 313 -211 416 -567 679 -1028 761 -88 15 -374 15 -452 -1
-185 -37 -269 -64 -395 -127 -245 -122 -468 -327 -591 -543 -109 -190 -143
-278 -190 -490 -19 -87 -21 -133 -25 -522 -3 -275 -8 -428 -14 -428 -6 0 -56
42 -112 93 -127 115 -180 157 -200 157 -9 0 -42 -24 -74 -53 -149 -137 -234
-207 -242 -202 -14 8 -7 794 8 895 28 191 81 420 121 515 28 69 41 99 76 175
110 242 299 505 480 665 72 65 233 186 274 207 13 7 52 29 85 48 206 122 469
207 740 241 49 6 92 13 94 15 9 9 368 4 455 -7z m-1935 -2938 c39 -33 109 -94
156 -137 l85 -77 0 -953 0 -952 -172 -7 c-95 -3 -238 -5 -318 -3 l-145 3 -6
395 c-7 489 -3 1500 6 1520 10 22 299 270 315 270 4 0 40 -27 79 -59z m3538
-45 c65 -57 137 -124 161 -149 l42 -47 0 -934 c0 -737 -3 -937 -12 -943 -7 -4
-148 -9 -313 -11 -273 -3 -300 -2 -312 13 -9 14 -12 221 -13 949 l0 931 62 62
c57 55 259 233 265 233 2 0 56 -47 120 -104z m549 -1374 c24 -23 146 -124 259
-216 l23 -19 151 132 c83 73 156 129 161 126 6 -4 10 -138 10 -361 0 -328 -1
-355 -17 -362 -10 -4 -155 -7 -323 -7 l-305 0 -3 368 c-1 202 1 367 6 367 5 0
21 -13 38 -28z"/>
</g>
</svg>
